<svg width="40" height="40" viewBox="0 0 40 40" fill="none" xmlns="http://www.w3.org/2000/svg">
<path d="M0.5 16C0.5 12.2146 0.501062 9.4259 0.788435 7.28845C1.07387 5.16538 1.63351 3.75989 2.6967 2.6967C3.75989 1.63351 5.16538 1.07387 7.28845 0.788435C9.4259 0.501062 12.2146 0.5 16 0.5H24C27.7854 0.5 30.5741 0.501062 32.7116 0.788435C34.8346 1.07387 36.2401 1.63351 37.3033 2.6967C38.3665 3.75989 38.9261 5.16538 39.2116 7.28845C39.4989 9.4259 39.5 12.2146 39.5 16V24C39.5 27.7854 39.4989 30.5741 39.2116 32.7116C38.9261 34.8346 38.3665 36.2401 37.3033 37.3033C36.2401 38.3665 34.8346 38.9261 32.7116 39.2116C30.5741 39.4989 27.7854 39.5 24 39.5H16C12.2146 39.5 9.4259 39.4989 7.28845 39.2116C5.16538 38.9261 3.75989 38.3665 2.6967 37.3033C1.63351 36.2401 1.07387 34.8346 0.788435 32.7116C0.501062 30.5741 0.5 27.7854 0.5 24V16Z" stroke="#D0D5DD"/>
<g clip-path="url(#clip0_1_2341)">
<path d="M12.2501 13.61C14.2701 16.2 18.0001 21 18.0001 21V27C18.0001 27.55 18.4501 28 19.0001 28H21.0001C21.5501 28 22.0001 27.55 22.0001 27V21C22.0001 21 25.7201 16.2 27.7401 13.61C28.2501 12.95 27.7801 12 26.9501 12H13.0401C12.2101 12 11.7401 12.95 12.2501 13.61Z" fill="#667085"/>
</g>
<defs>
<clipPath id="clip0_1_2341">
<rect width="24" height="24" fill="white" transform="translate(8 8)"/>
</clipPath>
</defs>
</svg>
