<svg width="24" height="24" viewBox="0 0 24 24" fill="none" xmlns="http://www.w3.org/2000/svg">
<g clip-path="url(#clip0_1_2264)">
<path d="M12.9063 5.17358C12.8756 4.60104 12.2905 4.69845 11.7196 4.69845C12.1413 4.81077 12.5403 4.96704 12.9063 5.17358Z" fill="white"/>
<path d="M6.8032 3.73874C4.58685 3.73874 3.5667 6.54405 5.33846 7.95498C5.94245 6.34222 7.14482 5.18421 8.72106 4.72713C8.28988 4.13103 7.59324 3.73874 6.8032 3.73874Z" fill="white"/>
<path d="M2.22452 7.51595C2.31485 7.80578 2.43187 8.08383 2.57089 8.34727L1.84285 9.07571C1.64734 9.27123 1.64734 9.58857 1.84285 9.78449L3.12613 11.0682C3.21959 11.1616 3.34764 11.2142 3.4811 11.2142C3.6131 11.2142 3.74029 11.1616 3.83536 11.0682L4.5626 10.3397C4.67173 10.3975 4.7927 10.4329 4.90573 10.4827C4.90573 10.4744 4.90492 10.4658 4.90492 10.4575C4.90492 9.86222 4.9733 9.30066 5.09503 8.77334C4.21698 8.20824 3.6311 7.22733 3.6311 6.1074C3.6311 4.358 5.05416 2.93453 6.80317 2.93453C7.98748 2.93453 9.01 3.59384 9.55583 4.5571C10.1386 4.48483 10.686 4.48483 11.3449 4.60934C11.2601 4.35294 11.1604 4.102 11.0355 3.86678L11.7635 3.13798C11.8585 3.04412 11.9111 2.91647 11.9111 2.78377C11.9111 2.65102 11.8585 2.52342 11.7635 2.42956L10.481 1.14668C10.3828 1.04852 10.2548 0.999821 10.1268 0.999821C9.99875 0.999821 9.87075 1.04852 9.77335 1.14668L9.04298 1.87549C8.77914 1.7357 8.5019 1.61868 8.21136 1.53033V0.500669C8.21136 0.224239 7.98829 0 7.71105 0H5.8961C5.62042 0 5.39497 0.224239 5.39497 0.500669V1.53028C5.10519 1.61863 4.8279 1.73565 4.56325 1.87544L3.83536 1.14744C3.73715 1.04928 3.60915 1.00058 3.4811 1.00058C3.3531 1.00058 3.22434 1.04928 3.12694 1.14704L1.84285 2.42991C1.74939 2.52418 1.6968 2.65137 1.6968 2.78453C1.6968 2.91764 1.74939 3.04488 1.84285 3.13874L2.57089 3.86714C2.43182 4.13103 2.31485 4.40867 2.22614 4.69845H1.19729C0.920052 4.69845 0.696167 4.92304 0.696167 5.19988V7.01488C0.696167 7.2909 0.920052 7.51595 1.19729 7.51595H2.22452Z" fill="white"/>
<path d="M17.9467 17.2278C18.7494 16.7875 19.3007 15.9449 19.3007 14.967C19.3007 13.54 18.1392 12.3793 16.7122 12.3793C16.2104 12.3793 15.7453 12.5293 15.348 12.7775C15.1101 13.7246 14.7354 14.6306 14.2454 15.4175C15.6346 15.6786 16.9093 16.3113 17.9467 17.2278Z" fill="white"/>
<path d="M23.3029 13.9878C23.3029 13.689 23.0602 13.447 22.7626 13.447H21.6521C21.5563 13.134 21.4291 12.834 21.2783 12.5494L22.0644 11.7633C22.1665 11.6619 22.223 11.5245 22.223 11.3812C22.223 11.2378 22.1665 11.1004 22.0644 10.9987L20.6805 9.61448C20.5754 9.50878 20.4363 9.45578 20.2982 9.45578C20.1599 9.45578 20.0217 9.50878 19.9165 9.61448L19.1288 10.401C18.8444 10.2502 18.5452 10.1238 18.2311 10.0283V8.91784C18.2311 8.61941 17.9899 8.37747 17.6915 8.37747H15.7336C15.6024 8.37747 15.487 8.43007 15.3928 8.50785C15.5577 9.10941 15.648 9.7617 15.648 10.4575C15.648 10.8993 15.6135 11.3478 15.5491 11.7938C15.9135 11.6595 16.3014 11.5751 16.7122 11.5751C18.5829 11.5751 20.1049 13.0968 20.1049 14.967C20.1049 16.1624 19.4806 17.2101 18.5436 17.8144C19.2254 18.5621 19.7673 19.4491 20.1199 20.443C20.178 20.463 20.2384 20.4776 20.2989 20.4776C20.4371 20.4776 20.5754 20.425 20.6814 20.3193L22.066 18.9351C22.1674 18.8337 22.2231 18.6963 22.2231 18.553C22.2231 18.4097 22.1674 18.2723 22.066 18.1705L21.2783 17.384C21.4291 17.0997 21.5563 16.7996 21.6522 16.4863H22.7626C22.9055 16.4863 23.0446 16.4298 23.1451 16.3276C23.2464 16.2267 23.3038 16.0889 23.3038 15.9456L23.3029 13.9878Z" fill="white"/>
<path d="M19.0172 20.9323C18.1776 18.4619 15.959 16.7629 13.3979 16.5316C12.5403 17.4398 11.4785 18.0159 10.276 18.0159C9.07448 18.0159 8.01185 17.4398 7.15505 16.5316C4.59243 16.7629 2.37376 18.4619 1.53416 20.9327L1.07005 22.2988C0.937297 22.6919 1.00087 23.1251 1.24281 23.4624C1.4847 23.7997 1.87426 24 2.2889 24H18.2624C18.6779 24 19.0674 23.7997 19.3094 23.4624C19.5505 23.1251 19.6149 22.6919 19.4813 22.2988L19.0172 20.9323Z" fill="white"/>
<path d="M6.11127 10.4575C6.11127 13.5217 7.97654 16.8096 10.276 16.8096C12.5764 16.8096 14.4416 13.5217 14.4416 10.4575C14.4416 4.10591 6.11127 4.09331 6.11127 10.4575Z" fill="white"/>
</g>
<defs>
<clipPath id="clip0_1_2264">
<rect width="24" height="24" fill="white"/>
</clipPath>
</defs>
</svg>
