<svg width="24" height="24" viewBox="0 0 24 24" fill="none" xmlns="http://www.w3.org/2000/svg">
<path d="M21.4286 8.14284V18.6428C21.4286 20.1813 20.1813 21.4286 18.6428 21.4286H5.35713C3.81862 21.4286 2.57141 20.1813 2.57141 18.6428V8.14284H21.4286ZM7.49248 15.0012C6.90075 15.0012 6.42106 15.4809 6.42106 16.0726C6.42106 16.6644 6.90075 17.144 7.49248 17.144C8.08422 17.144 8.56391 16.6644 8.56391 16.0726C8.56391 15.4809 8.08422 15.0012 7.49248 15.0012ZM11.9963 15.0012C11.4046 15.0012 10.9249 15.4809 10.9249 16.0726C10.9249 16.6644 11.4046 17.144 11.9963 17.144C12.5881 17.144 13.0678 16.6644 13.0678 16.0726C13.0678 15.4809 12.5881 15.0012 11.9963 15.0012ZM7.49248 10.7155C6.90075 10.7155 6.42106 11.1952 6.42106 11.7869C6.42106 12.3786 6.90075 12.8583 7.49248 12.8583C8.08422 12.8583 8.56391 12.3786 8.56391 11.7869C8.56391 11.1952 8.08422 10.7155 7.49248 10.7155ZM11.9963 10.7155C11.4046 10.7155 10.9249 11.1952 10.9249 11.7869C10.9249 12.3786 11.4046 12.8583 11.9963 12.8583C12.5881 12.8583 13.0678 12.3786 13.0678 11.7869C13.0678 11.1952 12.5881 10.7155 11.9963 10.7155ZM16.5002 10.7155C15.9084 10.7155 15.4287 11.1952 15.4287 11.7869C15.4287 12.3786 15.9084 12.8583 16.5002 12.8583C17.0919 12.8583 17.5716 12.3786 17.5716 11.7869C17.5716 11.1952 17.0919 10.7155 16.5002 10.7155ZM18.6428 2.57141C20.1813 2.57141 21.4286 3.81862 21.4286 5.35713V6.85713H2.57141V5.35713C2.57141 3.81862 3.81862 2.57141 5.35713 2.57141H18.6428Z" fill="white"/>
</svg>
