<svg width="24" height="24" viewBox="0 0 24 24" fill="none" xmlns="http://www.w3.org/2000/svg">
<g clip-path="url(#clip0_1_2275)">
<path d="M23.5697 2.84564C23.1597 1.99036 22.4863 1.281 21.6535 0.783609C20.8199 0.286687 19.8243 0.00084375 18.7554 0C17.332 0.00084375 16.0354 0.508406 15.0822 1.34925C14.6058 1.76991 14.2146 2.27531 13.9422 2.84564C13.6691 3.41508 13.5158 4.04986 13.5158 4.71478C13.5154 5.562 13.7658 6.35916 14.1945 7.03805C14.5606 7.61855 15.0559 8.11509 15.64 8.5035L14.7603 10.7008L15.3955 10.6224C17.5901 10.348 19.6907 9.52664 20.6885 9.09544C21.6364 8.75709 22.4545 8.17866 23.0435 7.42734C23.6364 6.67088 23.9966 5.73075 23.9959 4.71483C23.9965 4.04986 23.8424 3.41513 23.5697 2.84564ZM22.4927 6.88917C21.9995 7.51973 21.2882 8.02941 20.4461 8.32533L20.4347 8.3287L20.4232 8.33381C19.5599 8.70863 17.8135 9.3892 15.9571 9.71231L16.5864 8.14252L16.2774 7.9657C15.6542 7.6095 15.1438 7.12444 14.7925 6.5677C14.4407 6.00923 14.2478 5.38252 14.2472 4.71469C14.2472 4.19016 14.3665 3.69192 14.587 3.23058C14.9171 2.53983 15.4801 1.93561 16.2025 1.50436C16.9253 1.07316 17.8052 0.817031 18.7553 0.817453C20.0239 0.817031 21.1644 1.27284 21.9757 1.98989C22.3811 2.3482 22.7042 2.77013 22.9243 3.23058C23.1445 3.69192 23.2639 4.19016 23.2644 4.71469C23.264 5.51363 22.9867 6.25739 22.4927 6.88917Z" fill="white"/>
<path d="M16.689 4.19452C16.3748 4.19452 16.1202 4.47943 16.1202 4.82968C16.1202 5.18077 16.3748 5.4653 16.689 5.4653C17.0032 5.4653 17.2583 5.18077 17.2583 4.82968C17.2583 4.47943 17.0032 4.19452 16.689 4.19452Z" fill="white"/>
<path d="M18.884 4.19452C18.5696 4.19452 18.3145 4.47943 18.3145 4.82968C18.3145 5.18077 18.5696 5.4653 18.884 5.4653C19.1982 5.4653 19.453 5.18077 19.453 4.82968C19.453 4.47943 19.1982 4.19452 18.884 4.19452Z" fill="white"/>
<path d="M21.0784 4.19452C20.7642 4.19452 20.5093 4.47943 20.5093 4.82968C20.5093 5.18077 20.7642 5.4653 21.0784 5.4653C21.393 5.4653 21.6479 5.18077 21.6479 4.82968C21.6478 4.47943 21.393 4.19452 21.0784 4.19452Z" fill="white"/>
<path d="M10.3568 16.2683C9.76235 16.4659 9.1286 16.577 8.4686 16.577C7.8086 16.577 7.1749 16.4659 6.58038 16.2683C2.26334 16.9768 0.00415039 20.1494 0.00415039 24H8.4686H16.9331C16.9331 20.1494 14.6741 16.9768 10.3568 16.2683Z" fill="white"/>
<path d="M8.46863 15.2044C11.0274 15.2044 13.1016 13.1301 13.1016 10.5714V9.25693C13.1016 6.6984 11.0274 4.62399 8.46863 4.62399C5.90982 4.62399 3.83569 6.69835 3.83569 9.25693V10.5714C3.83569 13.1301 5.90986 15.2044 8.46863 15.2044Z" fill="white"/>
</g>
<defs>
<clipPath id="clip0_1_2275">
<rect width="24" height="24" fill="white"/>
</clipPath>
</defs>
</svg>
