<svg width="48" height="48" viewBox="0 0 48 48" fill="none" xmlns="http://www.w3.org/2000/svg">
<rect width="48" height="48" rx="8" fill="white"/>
<path d="M28.8311 27.6402C29.5011 27.2002 30.3811 27.6802 30.3811 28.4802V29.7702C30.3811 31.0402 29.3911 32.4002 28.2011 32.8002L25.0111 33.8602C24.4511 34.0502 23.5411 34.0502 22.9911 33.8602L19.8011 32.8002C18.6011 32.4002 17.6211 31.0402 17.6211 29.7702V28.4702C17.6211 27.6802 18.5011 27.2002 19.1611 27.6302L21.2211 28.9702C22.0111 29.5002 23.0111 29.7602 24.0111 29.7602C25.0111 29.7602 26.0111 29.5002 26.8011 28.9702L28.8311 27.6402Z" fill="#4963FF"/>
<path d="M31.9795 18.4586L25.9895 14.5286C24.9095 13.8186 23.1295 13.8186 22.0495 14.5286L16.0295 18.4586C14.0995 19.7086 14.0995 22.5386 16.0295 23.7986L17.6295 24.8386L22.0495 27.7186C23.1295 28.4286 24.9095 28.4286 25.9895 27.7186L30.3795 24.8386L31.7495 23.9386V26.9986C31.7495 27.4086 32.0895 27.7486 32.4995 27.7486C32.9095 27.7486 33.2495 27.4086 33.2495 26.9986V22.0786C33.6495 20.7886 33.2395 19.2886 31.9795 18.4586Z" fill="#4963FF"/>
</svg>
