<svg width="24" height="24" viewBox="0 0 24 24" fill="none" xmlns="http://www.w3.org/2000/svg">
<path d="M22.5151 6.99553L21.026 5.56483L13.1882 13.7226C12.9933 13.9258 12.7238 14.0408 12.4421 14.0412C12.4418 14.0412 12.4411 14.0412 12.4408 14.0412C12.1595 14.0412 11.8902 13.9268 11.695 13.7247L7.60886 9.49234L1.78825 15.6191C1.58471 15.8337 1.31069 15.9419 1.03661 15.9419C0.780224 15.9419 0.523429 15.8475 0.322637 15.6568C-0.0924132 15.2625 -0.109336 14.6062 0.285335 14.1912L6.85133 7.27962C7.04593 7.07471 7.31614 6.95787 7.5988 6.95686C7.60017 6.95686 7.60155 6.95686 7.60297 6.95686C7.88426 6.95686 8.15351 7.07125 8.34871 7.27342L12.439 11.5102L19.5313 4.1286L18.0422 2.6979L24 0.973816L22.5151 6.99553ZM1.03661 17.3242C0.798164 17.3242 0.566626 17.2896 0.345456 17.2239V23.0262H3.45567V15.8693L2.7887 16.5708C2.33599 17.0512 1.69667 17.3242 1.03661 17.3242ZM4.14682 23.0262H7.25703V11.8675L4.14682 15.1401V23.0262ZM10.7025 14.684L7.94819 11.8329V23.0262H11.0584V14.988C10.9305 14.8982 10.813 14.798 10.7025 14.684ZM12.4442 15.4235C12.2058 15.4235 11.9741 15.3889 11.7496 15.3199V23.0262H14.8598V13.979L14.1859 14.6805C13.7332 15.1505 13.0974 15.4235 12.4442 15.4235ZM15.551 13.2601V23.0262H18.6611V10.0221L15.551 13.2601ZM21.0664 7.5201L19.3523 9.30329V23.0262H22.4625V8.86094L21.0664 7.5201Z" fill="white"/>
</svg>
