<svg width="48" height="48" viewBox="0 0 48 48" fill="none" xmlns="http://www.w3.org/2000/svg">
<g clip-path="url(#clip0_1_2218)">
<path d="M24.5866 18.016C24.6109 18.0114 24.6079 18.0008 24.5774 17.984C24.569 17.9794 24.5618 17.9733 24.5557 17.9657C23.1578 16.186 21.6651 14.2759 20.0774 12.2355C19.7329 11.7919 19.4429 11.4749 19.2074 11.2843C18.2664 10.5229 16.9036 10.5012 15.9158 11.2054C15.3289 11.6231 14.8446 12.008 14.4627 12.3601C13.6464 13.1113 13.3834 14.3998 13.8568 15.447C13.9741 15.7062 14.1479 15.9825 14.3781 16.2759C17.6845 20.4855 20.9764 24.6845 24.2539 28.8727C24.3232 28.9611 24.3956 28.9634 24.4711 28.8796L34.9539 17.114" stroke="white" stroke-width="2"/>
<path d="M34.9539 17.1139C36.6125 15.1566 38.3099 13.2077 40.0462 11.2671C40.5248 10.7313 40.7733 10.1482 40.7916 9.51791C40.816 8.68712 40.4917 7.95236 39.8186 7.31364C39.2881 6.80983 38.8221 6.4112 38.4204 6.11776C37.356 5.33918 35.7154 5.48552 34.859 6.44817C31.4413 10.2889 28.0172 14.1448 24.5865 18.016" stroke="white" stroke-width="2"/>
<path d="M34.9539 17.114C34.662 17.2062 34.3838 17.3342 34.1193 17.4981C33.6559 17.7862 33.396 17.944 33.3396 17.9714C32.4966 18.3807 31.651 18.6372 30.8026 18.7409C29.2333 18.9322 27.614 18.8365 25.9448 18.4539C25.3526 18.3182 24.8998 18.1723 24.5865 18.016" stroke="white" stroke-width="2"/>
<path d="M6.79358 5.25H97.4567V42.75H6.79358V5.25ZM24.5866 18.016C24.611 18.0114 24.608 18.0008 24.5775 17.984C24.5691 17.9794 24.5619 17.9733 24.5558 17.9657C23.1579 16.186 21.6651 14.2759 20.0775 12.2355C19.733 11.7919 19.443 11.4748 19.2075 11.2843C18.2665 10.5229 16.9037 10.5011 15.9159 11.2054C15.329 11.6231 14.8446 12.008 14.4628 12.3601C13.6465 13.1113 13.3835 14.3998 13.8568 15.447C13.9742 15.7062 14.148 15.9825 14.3782 16.2759C17.6846 20.4855 20.9765 24.6845 24.2539 28.8727C24.3233 28.9611 24.3957 28.9634 24.4712 28.8796L34.954 17.1139C36.6126 15.1566 38.31 13.2077 40.0462 11.2671C40.5249 10.7313 40.7734 10.1482 40.7917 9.51791C40.8161 8.68712 40.4917 7.95236 39.8187 7.31364C39.2882 6.80983 38.8222 6.4112 38.4205 6.11776C37.3561 5.33918 35.7155 5.48552 34.8591 6.44817C31.4414 10.2889 28.0173 14.1448 24.5866 18.016ZM83.9395 28.205C85.5424 26.9394 86.1038 24.6368 86.2456 22.6303C86.393 20.5404 85.5116 18.7774 83.2364 18.5911C78.9559 18.2412 77.3244 21.9101 77.249 25.5069C77.2078 27.4653 78.0687 28.9585 80.1781 29.2054C81.6263 29.3746 82.8801 29.0412 83.9395 28.205ZM45.2871 21.6631C45.0935 22.4459 44.9026 23.2168 44.7143 23.976C44.3073 25.6178 44.0672 27.2938 43.7437 28.9573C43.7185 29.0846 43.7707 29.1482 43.9003 29.1482L45.661 29.1494C45.6773 29.1494 45.6931 29.1437 45.7056 29.1332C45.7181 29.1228 45.7266 29.1083 45.7296 29.0922L47.5451 18.7923C47.5481 18.7757 47.5474 18.7586 47.5431 18.7423C47.5389 18.726 47.531 18.7108 47.5202 18.6979C47.5095 18.6849 47.496 18.6745 47.4807 18.6673C47.4654 18.6601 47.4488 18.6563 47.4319 18.6563L45.1488 18.6551C45.1268 18.6551 45.1052 18.661 45.0865 18.6723C45.0677 18.6836 45.0525 18.6998 45.0424 18.7191L42.6324 23.3872C42.5874 23.4748 42.5569 23.4699 42.5409 23.3723L41.7818 18.734C41.7782 18.712 41.767 18.6919 41.75 18.6775C41.733 18.663 41.7115 18.6551 41.6892 18.6551L39.3443 18.6563C39.2962 18.6563 39.268 18.6799 39.2597 18.7271L37.4487 28.9973C37.4455 29.0157 37.4464 29.0345 37.4513 29.0525C37.4561 29.0704 37.4648 29.0871 37.4768 29.1014C37.4888 29.1157 37.5037 29.1271 37.5206 29.135C37.5374 29.1429 37.5558 29.147 37.5744 29.1471L39.382 29.1494C39.4007 29.1494 39.4188 29.1427 39.4331 29.1305C39.4473 29.1184 39.4568 29.1016 39.4597 29.0831C39.6099 28.1044 39.7738 27.1178 39.9514 26.1231C40.0764 25.4211 40.1674 24.7805 40.2246 24.2012C40.3115 23.3289 40.3835 22.3868 40.547 21.4916C40.5615 21.4131 40.5752 21.4131 40.5882 21.4916L41.3359 26.0191C41.3443 26.0694 41.374 26.0945 41.4251 26.0945L42.8016 26.0991C42.8243 26.0994 42.8466 26.0935 42.866 26.0819C42.8854 26.0704 42.9011 26.0538 42.9113 26.0339L45.2105 21.6334C45.3172 21.4284 45.3427 21.4383 45.2871 21.6631ZM49.9917 27.3007C49.9824 27.3007 49.9731 27.2986 49.9647 27.2946C49.9562 27.2906 49.9487 27.2848 49.9427 27.2776C49.9367 27.2705 49.9323 27.262 49.93 27.253C49.9276 27.2439 49.9272 27.2344 49.9289 27.2252L50.401 24.6014C50.4024 24.5944 50.4062 24.588 50.4118 24.5835C50.4174 24.5789 50.4245 24.5763 50.4319 24.5762L55.6442 24.5751C55.6627 24.5751 55.6807 24.5686 55.6949 24.5566C55.7091 24.5447 55.7187 24.5282 55.7219 24.5099L55.9826 23.0259C55.9863 23.0049 55.9853 22.9833 55.9798 22.9627C55.9742 22.9421 55.9642 22.923 55.9505 22.9066C55.9368 22.8903 55.9196 22.8772 55.9003 22.8681C55.881 22.8591 55.8599 22.8544 55.8385 22.8544L50.7543 22.8533C50.7478 22.8532 50.7414 22.8517 50.7356 22.849C50.7297 22.8462 50.7245 22.8423 50.7204 22.8374C50.7162 22.8325 50.7132 22.8267 50.7116 22.8206C50.71 22.8145 50.7097 22.8081 50.7109 22.8018L51.119 20.5427C51.1209 20.5331 51.126 20.5244 51.1335 20.5182C51.141 20.5119 51.1504 20.5085 51.1602 20.5084L56.6629 20.5095C56.6775 20.5095 56.6917 20.5042 56.703 20.4946C56.7143 20.4849 56.7219 20.4716 56.7246 20.4569C56.8123 19.9394 56.8984 19.415 56.983 18.8838C56.9952 18.8121 56.9959 18.7588 56.9853 18.7237C56.9794 18.7041 56.9674 18.687 56.9511 18.6749C56.9348 18.6627 56.9151 18.6562 56.895 18.6563H49.4635C49.4216 18.6563 49.3969 18.6768 49.3892 18.718L47.5771 28.9733C47.5733 28.9949 47.5742 29.017 47.5798 29.0382C47.5855 29.0593 47.5957 29.079 47.6097 29.0958C47.6238 29.1126 47.6414 29.1261 47.6612 29.1353C47.6811 29.1446 47.7027 29.1494 47.7246 29.1494L55.4132 29.1482C55.432 29.1482 55.4501 29.1415 55.4643 29.1294C55.4785 29.1172 55.488 29.1004 55.491 29.0819L55.7654 27.4345C55.768 27.4196 55.7676 27.4043 55.7642 27.3896C55.7608 27.3749 55.7545 27.361 55.7457 27.3487C55.7368 27.3364 55.7256 27.3261 55.7127 27.3182C55.6998 27.3104 55.6854 27.3052 55.6705 27.303C55.5394 27.2839 55.4056 27.2744 55.2692 27.2744C53.5573 27.2759 51.7981 27.2847 49.9917 27.3007ZM60.3934 22.0038C60.411 21.8994 60.4384 21.8967 60.4757 21.9958L63.1911 29.1117C63.195 29.1224 63.2022 29.1317 63.2116 29.1382C63.221 29.1448 63.2322 29.1483 63.2437 29.1482L65.1347 29.1494C65.1857 29.1494 65.2155 29.1242 65.2238 29.0739C65.7879 25.8316 66.3736 22.5088 66.9811 19.1056C67.0009 18.995 67.0131 18.8853 67.0177 18.7763C67.0184 18.761 67.0161 18.7456 67.0107 18.7312C67.0053 18.7168 66.997 18.7037 66.9863 18.6926C66.9756 18.6814 66.9627 18.6726 66.9484 18.6665C66.9342 18.6605 66.9188 18.6574 66.9033 18.6574H65.0523C65.0388 18.6574 65.0258 18.6622 65.0155 18.6708C65.0053 18.6793 64.9985 18.6912 64.9963 18.7043L63.9262 25.4074C63.9248 25.4169 63.9203 25.4256 63.9134 25.4322C63.9064 25.4388 63.8974 25.4428 63.8878 25.4437C63.8782 25.4446 63.8684 25.4424 63.8601 25.4372C63.8517 25.4321 63.8452 25.4244 63.8416 25.4154L61.3081 18.7134C61.3017 18.6963 61.2902 18.6815 61.2751 18.6711C61.26 18.6606 61.2419 18.6551 61.2235 18.6551L59.1278 18.6574C59.0699 18.6574 59.0356 18.686 59.0249 18.7431L57.2254 28.9493C57.2025 29.0812 57.2578 29.1471 57.3911 29.1471H59.1518C59.1754 29.1471 59.1983 29.1388 59.2163 29.1235C59.2343 29.1082 59.2463 29.087 59.2501 29.0636L60.3934 22.0038ZM68.0078 20.3998C68.0054 20.4133 68.0061 20.4271 68.0096 20.4403C68.0132 20.4535 68.0196 20.4658 68.0285 20.4762C68.0373 20.4867 68.0483 20.4951 68.0607 20.5008C68.0731 20.5066 68.0867 20.5096 68.1004 20.5095L71.3988 20.5084C71.4124 20.5084 71.426 20.5113 71.4384 20.5171C71.4508 20.5228 71.4618 20.5312 71.4706 20.5417C71.4795 20.5521 71.4859 20.5644 71.4895 20.5776C71.4931 20.5908 71.4937 20.6047 71.4914 20.6181L70.0074 29.0385C70.005 29.052 70.0057 29.0658 70.0093 29.079C70.0128 29.0922 70.0193 29.1045 70.0281 29.115C70.0369 29.1254 70.0479 29.1338 70.0603 29.1396C70.0728 29.1453 70.0863 29.1483 70.1 29.1482L71.9567 29.1471C71.9788 29.1472 72.0002 29.1394 72.0172 29.1252C72.0341 29.1109 72.0455 29.0912 72.0493 29.0694L73.5424 20.5884C73.5462 20.5666 73.5576 20.5468 73.5745 20.5326C73.5915 20.5184 73.6129 20.5106 73.635 20.5107L77.0135 20.5095C77.0356 20.5096 77.057 20.5018 77.074 20.4876C77.0909 20.4734 77.1023 20.4536 77.1061 20.4318L77.3988 18.7671C77.4011 18.7537 77.4005 18.7398 77.3969 18.7266C77.3933 18.7134 77.3869 18.7011 77.378 18.6907C77.3692 18.6802 77.3582 18.6718 77.3458 18.6661C77.3334 18.6603 77.3198 18.6574 77.3062 18.6574L68.3793 18.6563C68.3574 18.6565 68.3362 18.6644 68.3195 18.6786C68.3028 18.6928 68.2916 18.7124 68.2879 18.734L68.0078 20.3998ZM89.4171 25.3434L91.5367 25.3422C91.568 25.3422 91.5893 25.3571 91.6007 25.3868L92.9441 29.1139C92.9525 29.1376 92.9696 29.1494 92.9956 29.1494L95.0855 29.1471C95.1076 29.1471 95.1293 29.1419 95.1489 29.1317C95.1685 29.1215 95.1854 29.1068 95.198 29.0887C95.2107 29.0707 95.2189 29.0498 95.2218 29.0279C95.2247 29.006 95.2222 28.9838 95.2147 28.963L93.7936 25.0267C93.7854 25.0036 93.7858 24.9784 93.7949 24.9559C93.804 24.9333 93.821 24.9149 93.8427 24.9043C95.3599 24.1601 96.0058 22.5366 95.8972 20.8914C95.7749 19.0381 93.9696 18.6505 92.4754 18.654C91.1141 18.6578 89.7962 18.6578 88.5219 18.654C88.4944 18.654 88.478 18.6677 88.4727 18.6951L86.6549 29.0065C86.6519 29.0237 86.6527 29.0413 86.6572 29.0582C86.6617 29.0751 86.6699 29.0907 86.6811 29.1041C86.6923 29.1175 86.7063 29.1283 86.7221 29.1357C86.7379 29.1431 86.7551 29.147 86.7726 29.1471L88.6179 29.1494C88.6568 29.1494 88.6796 29.1303 88.6865 29.0922L89.3347 25.412C89.3431 25.3662 89.3706 25.3434 89.4171 25.3434ZM12.749 41.6627C13.1103 41.5126 13.4925 41.21 13.8957 40.755C16.853 37.415 19.7738 34.1242 22.6579 30.8826C22.6746 30.8637 22.6843 30.8395 22.6851 30.8143C22.6859 30.789 22.6779 30.7643 22.6625 30.7443L18.3431 25.1056C18.3398 25.1014 18.3356 25.098 18.3308 25.0957C18.326 25.0933 18.3207 25.092 18.3154 25.0919C18.31 25.0918 18.3047 25.0929 18.2999 25.095C18.295 25.0972 18.2906 25.1004 18.2871 25.1044C15.0668 28.737 11.8302 32.3811 8.57712 36.0366C8.24327 36.4127 7.92087 36.8392 7.80425 37.3274C7.73337 37.6261 7.71279 38.0069 7.74251 38.4695C7.81454 39.5842 8.70631 40.2359 9.46431 40.9242C10.4304 41.7999 11.4651 42.1966 12.749 41.6627ZM30.2025 36.4585C31.0062 37.4817 32.2661 37.835 33.4895 37.3639C34.084 37.1341 34.6705 36.5728 35.193 36.1681C36.1956 35.3929 36.5855 34.1124 36.135 32.944C36.0169 32.6399 35.752 32.2268 35.3405 31.7047C33.6819 29.604 32.076 27.5617 30.5226 25.5777C30.5178 25.5715 30.5117 25.5664 30.5048 25.5628C30.4978 25.5592 30.4901 25.5571 30.4823 25.5568C30.4744 25.5565 30.4666 25.5579 30.4593 25.5609C30.4521 25.5639 30.4456 25.5685 30.4403 25.5743L25.8123 30.7489C25.8001 30.7626 25.793 30.7802 25.7924 30.7985C25.7918 30.8169 25.7976 30.8349 25.8088 30.8495C27.2402 32.6818 28.7048 34.5514 30.2025 36.4585Z" fill="#4963FF"/>
<path d="M34.9543 17.1139C34.6624 17.2062 34.3842 17.3342 34.1197 17.4981C33.6563 17.7862 33.3964 17.944 33.34 17.9714C32.497 18.3807 31.6513 18.6372 30.803 18.7409C29.2336 18.9322 27.6144 18.8365 25.9451 18.4539C25.3529 18.3182 24.9002 18.1723 24.5869 18.016C28.0176 14.1448 31.4417 10.2889 34.8594 6.44817C35.7157 5.48552 37.3563 5.33918 38.4208 6.11776C38.8224 6.4112 39.2885 6.80983 39.819 7.31364C40.492 7.95236 40.8163 8.68712 40.7919 9.51791C40.7736 10.1482 40.5252 10.7313 40.0465 11.2671C38.3102 13.2077 36.6128 15.1566 34.9543 17.1139Z" fill="white"/>
<path d="M24.5866 18.016C24.8998 18.1723 25.3526 18.3182 25.9448 18.4539C27.614 18.8365 29.2333 18.9322 30.8026 18.7409C31.651 18.6372 32.4966 18.3807 33.3396 17.9714C33.396 17.944 33.6559 17.7862 34.1193 17.4981C34.3838 17.3342 34.662 17.2062 34.9539 17.114L24.4711 28.8796C24.3956 28.9634 24.3232 28.9611 24.2539 28.8727C20.9764 24.6845 17.6845 20.4855 14.3781 16.2759C14.1479 15.9825 13.9741 15.7062 13.8568 15.447C13.3834 14.3998 13.6464 13.1113 14.4627 12.3601C14.8446 12.008 15.3289 11.6231 15.9158 11.2054C16.9036 10.5012 18.2664 10.5229 19.2074 11.2843C19.4429 11.4749 19.7329 11.7919 20.0774 12.2355C21.6651 14.2759 23.1578 16.186 24.5557 17.9657C24.5618 17.9733 24.569 17.9794 24.5774 17.984C24.6079 18.0008 24.6109 18.0114 24.5866 18.016Z" fill="white"/>
<path d="M12.7491 41.6627C11.4652 42.1966 10.4305 41.7999 9.46447 40.9241C8.70646 40.2359 7.81469 39.5842 7.74267 38.4695C7.71294 38.0068 7.73352 37.6261 7.8044 37.3274C7.92102 36.8392 8.24343 36.4127 8.57727 36.0366C11.8303 32.3811 15.067 28.737 18.2873 25.1044C18.2908 25.1004 18.2951 25.0972 18.3 25.095C18.3049 25.0929 18.3102 25.0918 18.3155 25.0919C18.3209 25.092 18.3261 25.0933 18.3309 25.0957C18.3357 25.098 18.3399 25.1014 18.3433 25.1056L22.6626 30.7443C22.6781 30.7643 22.6861 30.789 22.6852 30.8143C22.6844 30.8395 22.6748 30.8637 22.6581 30.8826C19.7739 34.1242 16.8532 37.415 13.8959 40.7549C13.4927 41.21 13.1104 41.5126 12.7491 41.6627Z" fill="white"/>
<path d="M33.4891 37.3639C32.2658 37.835 31.0059 37.4817 30.2021 36.4585C28.7044 34.5514 27.2399 32.6818 25.8085 30.8495C25.7972 30.8349 25.7914 30.8169 25.792 30.7985C25.7927 30.7802 25.7997 30.7626 25.8119 30.7489L30.4399 25.5743C30.4452 25.5685 30.4517 25.5639 30.459 25.5609C30.4662 25.5579 30.474 25.5565 30.4819 25.5568C30.4897 25.5571 30.4974 25.5592 30.5044 25.5628C30.5114 25.5664 30.5175 25.5715 30.5223 25.5777C32.0756 27.5617 33.6816 29.604 35.3401 31.7046C35.7517 32.2267 36.0165 32.6399 36.1347 32.944C36.5851 34.1124 36.1953 35.3929 35.1926 36.1681C34.6701 36.5728 34.0836 37.1341 33.4891 37.3639Z" fill="white"/>
</g>
<defs>
<clipPath id="clip0_1_2218">
<rect width="48" height="48" fill="white"/>
</clipPath>
</defs>
</svg>
