<svg width="24" height="24" viewBox="0 0 24 24" fill="none" xmlns="http://www.w3.org/2000/svg">
<g clip-path="url(#clip0_1_2242)">
<path d="M18 16C19.6569 16 21 17.3431 21 19C21 20.6569 19.6569 22 18 22C16.3431 22 15 20.6569 15 19C15 17.3431 16.3431 16 18 16ZM15.5 4C17.9853 4 20 6.01472 20 8.5C20 10.9853 17.9853 13 15.5 13H8.5C7.11929 13 6 14.1193 6 15.5C6 16.8807 7.11929 18 8.5 18H13C13.5523 18 14 18.4477 14 19C14 19.5523 13.5523 20 13 20H8.5C6.01472 20 4 17.9853 4 15.5C4 13.0147 6.01472 11 8.5 11H15.5C16.8807 11 18 9.88071 18 8.5C18 7.11929 16.8807 6 15.5 6H11C10.4477 6 10 5.55228 10 5C10 4.44772 10.4477 4 11 4H15.5ZM6 2C7.65685 2 9 3.34315 9 5C9 6.65685 7.65685 8 6 8C4.34315 8 3 6.65685 3 5C3 3.34315 4.34315 2 6 2Z" fill="white"/>
</g>
<defs>
<clipPath id="clip0_1_2242">
<rect width="24" height="24" fill="white"/>
</clipPath>
</defs>
</svg>
