<svg width="24" height="24" viewBox="0 0 24 24" fill="none" xmlns="http://www.w3.org/2000/svg">
<g clip-path="url(#clip0_1_2249)">
<path d="M16 3C16.5523 3 17 3.44772 17 4V5H19C20.0544 5 20.9182 5.81588 20.9945 6.85074L21 7V19C21 20.0544 20.1841 20.9182 19.1493 20.9945L19 21H5C3.94564 21 3.08183 20.1841 3.00549 19.1493L3 19V7C3 5.94564 3.81588 5.08183 4.85074 5.00549L5 5H7V4C7 3.44772 7.44772 3 8 3C8.55228 3 9 3.44772 9 4V5H15V4C15 3.44772 15.4477 3 16 3ZM14.8241 9.37878L10.5815 13.6214L9.16727 12.2072C8.77675 11.8167 8.14358 11.8167 7.75306 12.2072C7.36253 12.5977 7.36253 13.2309 7.75306 13.6214L9.86731 15.7357C10.2617 16.1301 10.9012 16.1301 11.2957 15.7357L16.2383 10.793C16.6289 10.4025 16.6289 9.76931 16.2383 9.37878C15.8478 8.98826 15.2146 8.98826 14.8241 9.37878Z" fill="white"/>
</g>
<defs>
<clipPath id="clip0_1_2249">
<rect width="24" height="24" fill="white"/>
</clipPath>
</defs>
</svg>
