<svg width="54" height="54" viewBox="0 0 54 54" fill="none" xmlns="http://www.w3.org/2000/svg">
<g filter="url(#filter0_d_1_2692)">
<path d="M2 17C2 9.45753 2 5.68629 4.34315 3.34315C6.68629 1 10.4575 1 18 1H36C43.5425 1 47.3137 1 49.6569 3.34315C52 5.68629 52 9.45753 52 17V35C52 42.5425 52 46.3137 49.6569 48.6569C47.3137 51 43.5425 51 36 51H18C10.4575 51 6.68629 51 4.34315 48.6569C2 46.3137 2 42.5425 2 35V17Z" fill="white" shape-rendering="crispEdges"/>
<path d="M2.5 17C2.5 13.2146 2.50106 10.4259 2.78843 8.28845C3.07387 6.16538 3.63351 4.75989 4.6967 3.6967C5.75989 2.63351 7.16538 2.07387 9.28845 1.78843C11.4259 1.50106 14.2146 1.5 18 1.5H36C39.7854 1.5 42.5741 1.50106 44.7116 1.78843C46.8346 2.07387 48.2401 2.63351 49.3033 3.6967C50.3665 4.75989 50.9261 6.16538 51.2116 8.28845C51.4989 10.4259 51.5 13.2146 51.5 17V35C51.5 38.7854 51.4989 41.5741 51.2116 43.7116C50.9261 45.8346 50.3665 47.2401 49.3033 48.3033C48.2401 49.3665 46.8346 49.9261 44.7116 50.2116C42.5741 50.4989 39.7854 50.5 36 50.5H18C14.2146 50.5 11.4259 50.4989 9.28845 50.2116C7.16538 49.9261 5.75989 49.3665 4.6967 48.3033C3.63351 47.2401 3.07387 45.8346 2.78843 43.7116C2.50106 41.5741 2.5 38.7854 2.5 35V17Z" stroke="#D0D5DD" shape-rendering="crispEdges"/>
<path d="M25.2361 32C25.7062 32.4149 26.3237 32.6666 27 32.6666C27.6763 32.6666 28.2938 32.4149 28.7639 32M31 23.3333C31 22.2724 30.5785 21.255 29.8284 20.5049C29.0783 19.7547 28.0608 19.3333 27 19.3333C25.9391 19.3333 24.9217 19.7547 24.1715 20.5049C23.4214 21.255 23 22.2724 23 23.3333C23 25.3934 22.4803 26.804 21.8997 27.7369C21.4101 28.5239 21.1652 28.9174 21.1742 29.0272C21.1841 29.1487 21.2099 29.195 21.3078 29.2677C21.3963 29.3333 21.795 29.3333 22.5925 29.3333H31.4074C32.2049 29.3333 32.6037 29.3333 32.6921 29.2677C32.7901 29.195 32.8158 29.1487 32.8258 29.0272C32.8347 28.9174 32.5899 28.5239 32.1002 27.7369C31.5197 26.804 31 25.3934 31 23.3333Z" stroke="#667085" stroke-width="1.5" stroke-linecap="round" stroke-linejoin="round"/>
</g>
<defs>
<filter id="filter0_d_1_2692" x="0" y="0" width="54" height="54" filterUnits="userSpaceOnUse" color-interpolation-filters="sRGB">
<feFlood flood-opacity="0" result="BackgroundImageFix"/>
<feColorMatrix in="SourceAlpha" type="matrix" values="0 0 0 0 0 0 0 0 0 0 0 0 0 0 0 0 0 0 127 0" result="hardAlpha"/>
<feOffset dy="1"/>
<feGaussianBlur stdDeviation="1"/>
<feComposite in2="hardAlpha" operator="out"/>
<feColorMatrix type="matrix" values="0 0 0 0 0.0627451 0 0 0 0 0.0941176 0 0 0 0 0.156863 0 0 0 0.05 0"/>
<feBlend mode="normal" in2="BackgroundImageFix" result="effect1_dropShadow_1_2692"/>
<feBlend mode="normal" in="SourceGraphic" in2="effect1_dropShadow_1_2692" result="shape"/>
</filter>
</defs>
</svg>
