<svg width="48" height="48" viewBox="0 0 48 48" fill="none" xmlns="http://www.w3.org/2000/svg">
<path d="M0.5 16C0.5 12.2146 0.501062 9.4259 0.788435 7.28845C1.07387 5.16538 1.63351 3.75989 2.6967 2.6967C3.75989 1.63351 5.16538 1.07387 7.28845 0.788435C9.4259 0.501062 12.2146 0.5 16 0.5H32C35.7854 0.5 38.5741 0.501062 40.7116 0.788435C42.8346 1.07387 44.2401 1.63351 45.3033 2.6967C46.3665 3.75989 46.9261 5.16538 47.2116 7.28845C47.4989 9.4259 47.5 12.2146 47.5 16V32C47.5 35.7854 47.4989 38.5741 47.2116 40.7116C46.9261 42.8346 46.3665 44.2401 45.3033 45.3033C44.2401 46.3665 42.8346 46.9261 40.7116 47.2116C38.5741 47.4989 35.7854 47.5 32 47.5H16C12.2146 47.5 9.4259 47.4989 7.28845 47.2116C5.16538 46.9261 3.75989 46.3665 2.6967 45.3033C1.63351 44.2401 1.07387 42.8346 0.788435 40.7116C0.501062 38.5741 0.5 35.7854 0.5 32V16Z" fill="white"/>
<path d="M0.5 16C0.5 12.2146 0.501062 9.4259 0.788435 7.28845C1.07387 5.16538 1.63351 3.75989 2.6967 2.6967C3.75989 1.63351 5.16538 1.07387 7.28845 0.788435C9.4259 0.501062 12.2146 0.5 16 0.5H32C35.7854 0.5 38.5741 0.501062 40.7116 0.788435C42.8346 1.07387 44.2401 1.63351 45.3033 2.6967C46.3665 3.75989 46.9261 5.16538 47.2116 7.28845C47.4989 9.4259 47.5 12.2146 47.5 16V32C47.5 35.7854 47.4989 38.5741 47.2116 40.7116C46.9261 42.8346 46.3665 44.2401 45.3033 45.3033C44.2401 46.3665 42.8346 46.9261 40.7116 47.2116C38.5741 47.4989 35.7854 47.5 32 47.5H16C12.2146 47.5 9.4259 47.4989 7.28845 47.2116C5.16538 46.9261 3.75989 46.3665 2.6967 45.3033C1.63351 44.2401 1.07387 42.8346 0.788435 40.7116C0.501062 38.5741 0.5 35.7854 0.5 32V16Z" stroke="#D0D5DD"/>
<path d="M27.12 17.32H29V14.14C28.0898 14.0454 27.1752 13.9986 26.26 14C23.54 14 21.68 15.66 21.68 18.7V21.32H18.61V24.88H21.68V34H25.36V24.88H28.42L28.88 21.32H25.36V19.05C25.36 18 25.64 17.32 27.12 17.32Z" fill="#667085"/>
</svg>
