<svg width="48" height="48" viewBox="0 0 48 48" fill="none" xmlns="http://www.w3.org/2000/svg">
<path d="M0.5 16C0.5 12.2146 0.501062 9.4259 0.788435 7.28845C1.07387 5.16538 1.63351 3.75989 2.6967 2.6967C3.75989 1.63351 5.16538 1.07387 7.28845 0.788435C9.4259 0.501062 12.2146 0.5 16 0.5H32C35.7854 0.5 38.5741 0.501062 40.7116 0.788435C42.8346 1.07387 44.2401 1.63351 45.3033 2.6967C46.3665 3.75989 46.9261 5.16538 47.2116 7.28845C47.4989 9.4259 47.5 12.2146 47.5 16V32C47.5 35.7854 47.4989 38.5741 47.2116 40.7116C46.9261 42.8346 46.3665 44.2401 45.3033 45.3033C44.2401 46.3665 42.8346 46.9261 40.7116 47.2116C38.5741 47.4989 35.7854 47.5 32 47.5H16C12.2146 47.5 9.4259 47.4989 7.28845 47.2116C5.16538 46.9261 3.75989 46.3665 2.6967 45.3033C1.63351 44.2401 1.07387 42.8346 0.788435 40.7116C0.501062 38.5741 0.5 35.7854 0.5 32V16Z" fill="white"/>
<path d="M0.5 16C0.5 12.2146 0.501062 9.4259 0.788435 7.28845C1.07387 5.16538 1.63351 3.75989 2.6967 2.6967C3.75989 1.63351 5.16538 1.07387 7.28845 0.788435C9.4259 0.501062 12.2146 0.5 16 0.5H32C35.7854 0.5 38.5741 0.501062 40.7116 0.788435C42.8346 1.07387 44.2401 1.63351 45.3033 2.6967C46.3665 3.75989 46.9261 5.16538 47.2116 7.28845C47.4989 9.4259 47.5 12.2146 47.5 16V32C47.5 35.7854 47.4989 38.5741 47.2116 40.7116C46.9261 42.8346 46.3665 44.2401 45.3033 45.3033C44.2401 46.3665 42.8346 46.9261 40.7116 47.2116C38.5741 47.4989 35.7854 47.5 32 47.5H16C12.2146 47.5 9.4259 47.4989 7.28845 47.2116C5.16538 46.9261 3.75989 46.3665 2.6967 45.3033C1.63351 44.2401 1.07387 42.8346 0.788435 40.7116C0.501062 38.5741 0.5 35.7854 0.5 32V16Z" stroke="#D0D5DD"/>
<path d="M26 14.2695V18.4C26 18.9601 26 19.2401 26.109 19.454C26.2049 19.6422 26.3578 19.7951 26.546 19.891C26.7599 20 27.0399 20 27.6 20H31.7305M32 21.9882V29.2C32 30.8802 32 31.7202 31.673 32.362C31.3854 32.9265 30.9265 33.3854 30.362 33.673C29.7202 34 28.8802 34 27.2 34H20.8C19.1198 34 18.2798 34 17.638 33.673C17.0735 33.3854 16.6146 32.9265 16.327 32.362C16 31.7202 16 30.8802 16 29.2V18.8C16 17.1198 16 16.2798 16.327 15.638C16.6146 15.0735 17.0735 14.6146 17.638 14.327C18.2798 14 19.1198 14 20.8 14H24.0118C24.7455 14 25.1124 14 25.4577 14.0829C25.7638 14.1564 26.0564 14.2776 26.3249 14.4421C26.6276 14.6276 26.887 14.887 27.4059 15.4059L30.5941 18.5941C31.113 19.113 31.3724 19.3724 31.5579 19.6751C31.7224 19.9436 31.8436 20.2362 31.9171 20.5423C32 20.8876 32 21.2545 32 21.9882Z" stroke="#667085" stroke-width="2" stroke-linecap="round" stroke-linejoin="round"/>
</svg>
